<mxfile host="app.diagrams.net" modified="2024-01-11T12:07:04.347Z" agent="Mozilla/5.0 (Windows NT 10.0; Win64; x64) AppleWebKit/537.36 (KHTML, like Gecko) Chrome/120.0.0.0 Safari/537.36" version="22.1.18" etag="BYf4-2S39j0X0p50AgLV" type="github">
  <diagram name="第 1 页" id="58lorILPoeklncjmSD30">
    <mxGraphModel>
      <root>
        <mxCell id="0" />
        <mxCell id="1" parent="0" />
      </root>
    </mxGraphModel>
  </diagram>
</mxfile>
